<svg xmlns="http://www.w3.org/2000/svg" xmlns:xlink="http://www.w3.org/1999/xlink" width="500" zoomAndPan="magnify" viewBox="0 0 375 374.999991" height="500" preserveAspectRatio="xMidYMid meet" version="1.0"><path fill="#4c5270" d="M 258.972656 54.167969 C 258.5 55.949219 256.671875 56.984375 254.898438 56.519531 L 206.03125 43.433594 C 204.257812 42.957031 203.199219 41.148438 203.675781 39.359375 C 204.15625 37.585938 205.984375 36.542969 207.75 37.015625 L 256.617188 50.109375 C 258.394531 50.570312 259.449219 52.398438 258.972656 54.167969 Z M 159.617188 314.367188 C 154.144531 312.894531 148.5 316.15625 147.03125 321.636719 C 145.566406 327.121094 148.808594 332.753906 154.300781 334.214844 C 159.777344 335.695312 165.410156 332.429688 166.875 326.960938 C 168.351562 321.480469 165.101562 315.839844 159.617188 314.367188 Z M 263.269531 344.414062 L 332.40625 86.382812 C 337.535156 67.238281 326.140625 47.46875 306.984375 42.339844 L 168.019531 5.109375 C 148.871094 -0.03125 129.109375 11.390625 123.972656 30.546875 L 54.828125 288.574219 C 49.699219 307.730469 61.109375 327.46875 80.265625 332.609375 L 219.214844 369.839844 C 238.378906 374.96875 258.132812 363.558594 263.269531 344.414062 Z M 304.320312 52.269531 C 318.007812 55.925781 326.148438 70.039062 322.484375 83.71875 L 253.339844 341.75 C 249.667969 355.417969 235.5625 363.574219 221.878906 359.914062 L 82.921875 322.691406 C 69.242188 319.027344 61.09375 304.90625 64.757812 291.234375 L 133.902344 33.203125 C 137.574219 19.515625 151.691406 11.367188 165.371094 15.039062 Z M 304.320312 52.269531 " fill-opacity="1" fill-rule="nonzero"/><path fill="#50b1a2" d="M 266.726562 271.929688 C 266.433594 273.03125 265.484375 273.332031 264.613281 272.609375 L 111.457031 144.011719 C 110.585938 143.285156 110.117188 141.804688 110.410156 140.710938 L 122.652344 95.0625 C 122.953125 93.972656 123.894531 93.664062 124.757812 94.398438 L 277.914062 222.984375 C 278.792969 223.710938 279.261719 225.207031 278.960938 226.289062 Z M 266.726562 271.929688 " fill-opacity="1" fill-rule="nonzero"/><path fill="#489cd8" d="M 109.359375 151.796875 C 108.503906 151.066406 107.546875 151.359375 107.269531 152.460938 L 95.03125 198.109375 C 94.738281 199.199219 95.210938 200.695312 96.066406 201.433594 L 240.824219 322.941406 C 241.683594 323.664062 241.503906 324.019531 240.410156 323.734375 L 75.351562 279.492188 C 74.25 279.199219 73.121094 279.867188 72.828125 280.949219 L 72.691406 281.472656 C 72.398438 282.554688 73.050781 283.695312 74.140625 283.980469 L 248.828125 330.785156 C 249.921875 331.074219 251.054688 330.417969 251.339844 329.335938 L 251.472656 328.8125 C 251.773438 327.722656 252.246094 325.941406 252.53125 324.84375 L 263.5625 283.679688 C 263.855469 282.585938 263.40625 281.09375 262.527344 280.371094 Z M 109.359375 151.796875 " fill-opacity="1" fill-rule="nonzero"/><path fill="#e73273" d="M 316.6875 85.53125 C 316.964844 84.4375 316.320312 83.308594 315.222656 83.015625 L 140.542969 36.21875 C 139.449219 35.925781 138.316406 36.574219 138.023438 37.675781 L 137.890625 38.179688 C 137.597656 39.273438 137.113281 41.058594 136.824219 42.144531 L 125.792969 83.308594 C 125.492188 84.398438 125.957031 85.894531 126.820312 86.613281 L 280.003906 215.207031 C 280.875 215.933594 281.808594 215.632812 282.101562 214.542969 L 294.324219 168.890625 C 294.617188 167.800781 294.160156 166.304688 293.28125 165.585938 L 148.554688 44.074219 C 147.6875 43.355469 147.875 42.984375 148.960938 43.285156 L 314.027344 87.507812 C 315.128906 87.800781 316.25 87.152344 316.535156 86.042969 Z M 316.6875 85.53125 " fill-opacity="1" fill-rule="nonzero"/></svg>